<?xml version="1.0" encoding="utf-8"?>
<!-- Generator: Adobe Illustrator 25.4.0, SVG Export Plug-In . SVG Version: 6.00 Build 0)  -->
<svg version="1.1" id="Layer_1" xmlns="http://www.w3.org/2000/svg" xmlns:xlink="http://www.w3.org/1999/xlink" x="0px" y="0px"
	 viewBox="0 0 123 44.1" style="enable-background:new 0 0 123 44.1;" xml:space="preserve">
<style type="text/css">
	.st0{fill-rule:evenodd;clip-rule:evenodd;fill:#FAAE27;}
	.st1{fill:none;}
	.st2{fill-rule:evenodd;clip-rule:evenodd;}
</style>
<g id="Jago-Syariah-Logo">
	<g id="Group-31" transform="translate(28.000000, 22.000000)">
		<path id="Fill-1" class="st0" d="M-6.9-15.6c-1.7-0.3-3.5,0.4-4.4,1.9c-0.2,0.3-0.4,0.7-0.5,1.1c-0.4-1.5-1.6-2.7-3.2-3
			c-1.7-0.3-3.5,0.4-4.4,1.9c-0.2,0.3-0.4,0.7-0.5,1.1c-0.4-1.5-1.6-2.7-3.2-3c-1.7-0.3-3.5,0.4-4.4,1.9c-0.9,1.5-0.8,3.4,0.4,4.8
			c1.1,1.3,3,1.9,4.6,1.3c1.3-0.5,2.3-1.6,2.6-2.9c0.1,0.6,0.4,1.1,0.8,1.6c1.1,1.3,3,1.9,4.6,1.3c1.3-0.5,2.3-1.6,2.6-2.9
			c0.1,0.6,0.4,1.1,0.8,1.6C-9.9-7.5-8-7-6.3-7.6c1.6-0.6,2.8-2.2,2.8-3.9C-3.6-13.5-5-15.2-6.9-15.6"/>
		<path id="Fill-3" class="st0" d="M-20.2,4.5c0.4,1.8,1.5,3.5,3.4,4C-15,9-13,8.2-12.1,6.6c0.6-1,0.5-2.1,0.5-3.1
			c0-0.7,0-1.4,0-2.2c0-0.8,0-1.6,0-2.4c0-1,0-2,0.5-2.9c0.7-1.3,2.1-2.1,3.6-2C-6.1-6-4.8-5-4.2-3.7c0.4,0.9,0.3,1.9,0.3,2.8
			c0,0.8,0,1.6,0,2.4c0,1.7,0.1,3.5-0.2,5.2c-0.8,3.9-3.5,7.3-7.1,8.8c-3.7,1.6-8,1.1-11.3-1.1c-1.6-1.1-3-2.6-3.9-4.3
			c-0.9-1.7-1.4-3.9-1.1-5.8c0.2-1.4,1.4-2.6,2.8-2.9c1.5-0.3,3.1,0.4,3.8,1.7C-20.5,3.5-20.4,4-20.2,4.5"/>
		<line id="Fill-5" class="st1" x1="50.8" y1="-0.3" x2="50.8" y2="-0.3"/>
		<line id="Fill-7" class="st1" x1="50.9" y1="-0.3" x2="50.9" y2="-0.3"/>
		<path id="Fill-9" class="st2" d="M80.4,4.3c0,2.9,2,4.9,4.7,4.9c2.7,0,4.7-2.1,4.7-4.9c0-2.9-2-5-4.7-5
			C82.4-0.7,80.4,1.4,80.4,4.3 M94.9,4.3c0,5.3-4.3,9.5-9.8,9.5c-5.4,0-9.7-4.2-9.7-9.5c0-5.3,4.3-9.4,9.8-9.4
			C90.6-5.2,94.9-1,94.9,4.3"/>
		<path id="Fill-11" class="st2" d="M16.3,7.8c0.9,0.5,1.8,1.1,2.9,1c1.1-0.1,2-0.6,2.6-1.5c0.6-0.8,0.5-1.7,0.5-2.7
			c0-1.6,0-12.4,0-13.2c0-0.5,0-1.1,0.2-1.6c0.6-1.5,2.6-2,3.9-1c0.7,0.6,0.9,1.4,0.9,2.2c0,1.7,0,13.5,0,14.6
			c-0.1,2.1-1.1,4.1-2.6,5.6c-1.6,1.5-3.7,2.4-5.9,2.4c-2.1,0-4.3-0.8-5.7-2.4c-0.6-0.7-0.9-1.4-0.7-2.3c0.2-0.8,0.9-1.5,1.7-1.7
			C15.1,7.2,15.7,7.5,16.3,7.8"/>
		<path id="Fill-13" class="st2" d="M40.1,9.3c-2.8,0-4.7-2.1-4.7-5c0-2.9,2-5,4.7-5c2.7,0,4.6,2.1,4.6,5
			C44.7,7.3,42.8,9.3,40.1,9.3 M50.8,9.3L50.8,9.3c-0.8-0.5-1.2-1.3-1.2-2.2l0-9.9c0-1.4-1.1-2.5-2.5-2.5c-1.3,0-2.3,0.9-2.5,2.1
			c-1.3-1.3-3.2-2.1-5.4-2.1c-5.1,0-8.8,4-8.8,9.5s3.7,9.5,8.8,9.5c0,0,0,0,0.1,0c0,0,0,0,0.1,0c2.5,0,4.6-0.9,6.1-2.5
			c0.8,1.2,2.1,2.1,3.6,2.4c0.1,0,0.3,0,0.4,0c0,0,0,0,0,0c0,0,0,0,0,0c1.3,0,2.4-1.1,2.4-2.4C51.9,10.5,51.5,9.8,50.8,9.3"/>
		<path id="Fill-15" class="st2" d="M63.2,9.3c-2.8,0-4.7-2.1-4.7-5c0-2.9,2-5,4.7-5c2.7,0,4.6,2.1,4.6,5C67.8,7.3,66,9.3,63.2,9.3
			L63.2,9.3z M72.7-2.7c0-1.4-1-2.5-2.4-2.5c-1.3,0-2.3,1-2.4,2.3c-1.3-1.4-3.2-2.3-5.6-2.3c-5.1,0-8.8,4-8.8,9.5
			c0,5.5,3.7,9.5,8.8,9.5c2.3,0,4.2-0.8,5.4-2.2l0,0.6c0,3-1.9,4.9-4.6,4.9c-1.2,0-2.2-0.4-3.1-1.1c-0.3-0.3-0.6-0.6-0.8-0.9
			c-0.8-1.1-2.3-1.4-3.4-0.7s-1.5,2.3-0.7,3.4c0.5,0.7,1.1,1.4,1.7,1.9c1.7,1.5,3.9,2.3,6.3,2.3c5.5,0,9.5-4.1,9.6-9.7l0-1.1
			c0,0,0,0,0,0V-2.7z"/>
		<path id="Fill-17" class="st2" d="M48.1-12.2c-0.3-0.2-0.4-0.4-0.4-0.7c0-0.4,0.3-0.8,0.8-0.8c0.2,0,0.3,0.1,0.5,0.2
			c0.6,0.3,1.1,0.6,1.9,0.6c0.8,0,1.3-0.3,1.3-0.9c0-0.5-0.3-0.7-1.2-0.8l-0.8-0.1c-1.5-0.2-2.2-0.9-2.2-2.1c0-1.4,1-2.3,2.8-2.3
			c0.8,0,1.6,0.2,2.2,0.5c0.3,0.2,0.5,0.4,0.5,0.7c0,0.4-0.3,0.7-0.7,0.7c-0.2,0-0.3,0-0.5-0.2c-0.5-0.2-1-0.4-1.6-0.4
			c-0.8,0-1.1,0.3-1.1,0.8c0,0.4,0.3,0.7,1.2,0.8l0.8,0.1c1.5,0.2,2.2,0.9,2.2,2.1c0,1.4-1.1,2.4-3.1,2.4
			C49.6-11.4,48.7-11.8,48.1-12.2"/>
		<path id="Fill-19" class="st2" d="M56.1-8.9c-0.5,0-0.8-0.3-0.8-0.8c0-0.4,0.3-0.7,0.8-0.8c0.5,0,0.8-0.2,1.1-0.9l0.2-0.6L55-17.7
			c-0.1-0.1-0.1-0.3-0.1-0.4c0-0.5,0.4-0.8,0.8-0.8c0.4,0,0.6,0.2,0.8,0.6l1.6,4.3h0l1.6-4.3c0.1-0.4,0.4-0.6,0.8-0.6
			c0.5,0,0.8,0.3,0.8,0.8c0,0.1,0,0.3-0.1,0.4l-2.7,6.8c-0.6,1.6-1.2,2.1-2.4,2.1H56.1z"/>
		<path id="Fill-21" class="st2" d="M67-13.9v-0.6c0-0.1,0-0.1-0.1-0.1h-1.2c-1.1,0-1.6,0.3-1.6,1c0,0.6,0.4,0.9,1.3,0.9
			C66.4-12.8,67-13.2,67-13.9 M69.1-12.3c0,0.5-0.4,0.8-0.8,0.8c-0.3,0-0.5-0.1-0.7-0.3l-0.2-0.4h0c-0.4,0.5-1.2,0.8-2.1,0.8
			c-1.7,0-2.6-0.8-2.6-2.2c0-1.6,1.1-2.3,2.9-2.3h1.5c0.1,0,0.1,0,0.1-0.1v-0.2c0-0.8-0.5-1.3-1.6-1.3c-0.5,0-1,0.2-1.3,0.3
			c-0.2,0.1-0.3,0.1-0.4,0.1c-0.4,0-0.7-0.3-0.7-0.7c0-0.2,0.1-0.5,0.4-0.7c0.5-0.3,1.2-0.5,2.2-0.5c2.1,0,3,1,3,2.8v2.3
			c0,0.4,0,0.5,0.2,0.7l0.2,0.4C69.1-12.6,69.1-12.5,69.1-12.3"/>
		<path id="Fill-23" class="st2" d="M72.4-18L72.4-18c0.3-0.6,1-1,1.9-1c0.4,0,0.7,0.1,0.9,0.2c0.3,0.2,0.5,0.4,0.5,0.7
			c0,0.5-0.3,0.9-0.8,0.9c-0.1,0-0.3,0-0.4-0.1c-0.2-0.1-0.5-0.1-0.7-0.1c-0.9,0-1.3,0.7-1.3,1.8v3.2c0,0.6-0.3,0.9-0.8,0.9
			c-0.5,0-0.8-0.3-0.8-0.9V-18c0-0.6,0.3-0.9,0.8-0.9S72.4-18.6,72.4-18L72.4-18z"/>
		<path id="Fill-25" class="st2" d="M77.1-12.4V-18c0-0.6,0.3-0.9,0.8-0.9c0.5,0,0.8,0.3,0.8,0.9v5.6c0,0.6-0.3,0.9-0.8,0.9
			C77.4-11.5,77.1-11.8,77.1-12.4 M77.9-21.9c0.6,0,1,0.5,1,1c0,0.6-0.5,1-1,1s-1-0.5-1-1C76.9-21.5,77.4-21.9,77.9-21.9"/>
		<path id="Fill-27" class="st2" d="M85.1-13.9v-0.6c0-0.1,0-0.1-0.1-0.1h-1.2c-1.1,0-1.6,0.3-1.6,1c0,0.6,0.4,0.9,1.3,0.9
			C84.5-12.8,85.1-13.2,85.1-13.9 M87.2-12.3c0,0.5-0.4,0.8-0.8,0.8c-0.3,0-0.5-0.1-0.7-0.3l-0.2-0.4h0c-0.4,0.5-1.2,0.8-2.1,0.8
			c-1.7,0-2.6-0.8-2.6-2.2c0-1.6,1.1-2.3,2.9-2.3H85c0.1,0,0.1,0,0.1-0.1v-0.2c0-0.8-0.5-1.3-1.6-1.3c-0.5,0-1,0.2-1.3,0.3
			c-0.2,0.1-0.3,0.1-0.4,0.1c-0.4,0-0.7-0.3-0.7-0.7c0-0.2,0.1-0.5,0.4-0.7c0.5-0.3,1.2-0.5,2.2-0.5c2.1,0,3,1,3,2.8v2.3
			c0,0.4,0,0.5,0.2,0.7l0.2,0.4C87.2-12.6,87.2-12.5,87.2-12.3"/>
		<path id="Fill-29" class="st2" d="M93.3-12.4v-3.5c0-0.9-0.5-1.6-1.4-1.6c-0.9,0-1.4,0.6-1.4,1.6v3.5c0,0.6-0.3,0.9-0.8,0.9
			c-0.5,0-0.8-0.3-0.8-0.9V-21c0-0.6,0.3-0.9,0.8-0.9c0.5,0,0.8,0.3,0.8,0.9v2.8h0c0.4-0.5,1.1-0.8,1.9-0.8c1.6,0,2.5,1.1,2.5,2.7
			v3.9c0,0.6-0.3,0.9-0.8,0.9C93.7-11.5,93.3-11.8,93.3-12.4"/>
	</g>
</g>
</svg>
