<svg xmlns="http://www.w3.org/2000/svg" width="10rem" height="10rem" viewBox="0 0 24 24"><path fill="white" d="m12.871 11.577l1.245-.902l1.219.902l-.48-1.45l1.245-.883h-1.53l-.454-1.475l-.466 1.475h-1.544l1.244.883zm-.876 4.654q1.753 0 2.995-1.226q1.24-1.226 1.24-3.001q0-.17-.012-.339t-.062-.33q-.232.99-1.035 1.633q-.802.644-1.879.644q-1.267 0-2.138-.871q-.871-.872-.871-2.122q0-.996.563-1.764q.564-.768 1.44-1.086h-.232q-1.779 0-3.007 1.237T7.77 11.997q0 1.776 1.226 3.005t3 1.229M12 21.916L9.069 19H5v-4.069L2.085 12L5 9.069V5h4.069L12 2.085L14.931 5H19v4.069L21.916 12L19 14.931V19h-4.069zm0-1.416l2.5-2.5H18v-3.5l2.5-2.5L18 9.5V6h-3.5L12 3.5L9.5 6H6v3.5L3.5 12L6 14.5V18h3.5zm0-8.5"/></svg>